<svg height="512pt" viewBox="0 0 512 512" width="512pt" xmlns="http://www.w3.org/2000/svg"><path d="m0 119v-59c0-33.085938 26.914062-60 60-60h61c11.046875 0 20 8.953125 20 20s-8.953125 20-20 20h-61c-11.027344 0-20 8.972656-20 20v59c0 11.046875-8.953125 20-20 20s-20-8.953125-20-20zm452-119h-61c-11.046875 0-20 8.953125-20 20s8.953125 20 20 20h61c11.027344 0 20 8.972656 20 20v59c0 11.046875 8.953125 20 20 20s20-8.953125 20-20v-59c0-33.085938-26.914062-60-60-60zm-331 472h-61c-11.027344 0-20-8.972656-20-20v-59c0-11.046875-8.953125-20-20-20s-20 8.953125-20 20v59c0 33.085938 26.914062 60 60 60h61c11.046875 0 20-8.953125 20-20s-8.953125-20-20-20zm371-99c-11.046875 0-20 8.953125-20 20v59c0 11.027344-8.972656 20-20 20h-61c-11.046875 0-20 8.953125-20 20s8.953125 20 20 20h61c33.085938 0 60-26.914062 60-60v-59c0-11.046875-8.953125-20-20-20zm-91.015625-55.050781c32.757813-88.398438-9.714844-186.382813-96.691406-223.070313-27.644531-11.660156-57.929688-16.09375-87.59375-12.820312-15.164063 1.675781-27.164063 12.882812-29.851563 27.886718-2.683594 14.96875 4.660156 29.613282 18.273438 36.433594 19.53125 9.785156 34.835937 26.328125 43.097656 46.582032 9.105469 22.320312 8.96875 46.847656-.382812 69.066406-9.351563 22.21875-26.796876 39.472656-49.128907 48.574218-20.257812 8.257813-42.792969 8.886719-63.449219 1.769532-14.398437-4.957032-30.015624.046875-38.863281 12.453125-8.820312 12.375-8.464843 28.726562.890625 40.6875 18.371094 23.492187 42.691406 42.054687 70.332032 53.679687 21.703124 9.125 44.980468 13.796875 68.328124 13.796875 7.058594 0 14.125-.429687 21.152344-1.289062 29.339844-3.585938 57.542969-14.597657 81.566406-31.84375 8.972657-6.441407 11.023438-18.9375 4.582032-27.910157-6.441406-8.972656-18.9375-11.023437-27.910156-4.582031-38.808594 27.859375-88.234376 33.453125-132.214844 14.957031-15.332032-6.449218-29.339844-15.652343-41.265625-27.039062 24.082031 4.277344 49.027343 1.703125 71.949219-7.640625 32.226562-13.136719 57.40625-38.03125 70.898437-70.097656 13.496094-32.070313 13.691406-67.476563.550781-99.691407-9.347656-22.917968-24.949218-42.542968-44.84375-56.761718 16.53125.5625 32.957032 4.15625 48.335938 10.644531 67.203125 28.347656 100.03125 104.039063 74.730468 172.316406-3.839843 10.355469 1.445313 21.863281 11.804688 25.703125s21.863281-1.445312 25.703125-11.804687zm0 0"/></svg>