<?xml version="1.0" encoding="iso-8859-1"?>
<!-- Generator: Adobe Illustrator 19.0.0, SVG Export Plug-In . SVG Version: 6.00 Build 0)  -->
<svg version="1.1" id="Capa_1" xmlns="http://www.w3.org/2000/svg" xmlns:xlink="http://www.w3.org/1999/xlink" x="0px" y="0px"
	 viewBox="0 0 496 496" style="enable-background:new 0 0 496 496;" xml:space="preserve">
<g>
	<g>
		<g>
			<path d="M248,0C111.033,0,0,111.033,0,248s111.033,248,248,248c136.903-0.154,247.846-111.097,248-248
				C496,111.033,384.967,0,248,0z M248,480C119.87,480,16,376.13,16,248S119.87,16,248,16c128.07,0.146,231.855,103.93,232,232
				C480,376.13,376.13,480,248,480z"/>
			<path d="M248,48C137.543,48,48,137.543,48,248s89.543,200,200,200c110.406-0.123,199.877-89.594,200-200
				C448,137.543,358.457,48,248,48z M248,432c-101.62,0-184-82.38-184-184S146.38,64,248,64c101.573,0.115,183.885,82.427,184,184
				C432,349.62,349.62,432,248,432z"/>
			<path d="M219.656,153.512L83.888,241.28c-0.953,0.615-1.764,1.427-2.379,2.379c-2.397,3.711-1.332,8.663,2.379,11.061
				l135.768,87.768c1.294,0.836,2.803,1.281,4.344,1.28c4.418,0,8-3.582,8-8V160.232c0-1.542-0.445-3.051-1.282-4.346
				C228.319,152.176,223.366,151.113,219.656,153.512z M216,321.064L102.968,248L216,174.936V321.064z"/>
			<path d="M390.718,155.886c-2.399-3.71-7.352-4.773-11.062-2.374L243.888,241.28c-0.953,0.615-1.764,1.427-2.379,2.379
				c-2.397,3.711-1.332,8.663,2.379,11.061l135.768,87.768c1.294,0.836,2.803,1.281,4.344,1.28c4.418,0,8-3.582,8-8V160.232
				C392,158.69,391.555,157.181,390.718,155.886z M376,321.064L262.968,248L376,174.936V321.064z"/>
		</g>
	</g>
</g>
<g>
</g>
<g>
</g>
<g>
</g>
<g>
</g>
<g>
</g>
<g>
</g>
<g>
</g>
<g>
</g>
<g>
</g>
<g>
</g>
<g>
</g>
<g>
</g>
<g>
</g>
<g>
</g>
<g>
</g>
</svg>
